<svg id="visual" viewBox="0 0 900 600" width="900" height="600" xmlns="http://www.w3.org/2000/svg" xmlns:xlink="http://www.w3.org/1999/xlink" version="1.1"><path d="M0 91L82 265L164 181L245 85L327 151L409 139L491 61L573 235L655 199L736 151L818 217L900 115L900 0L818 0L736 0L655 0L573 0L491 0L409 0L327 0L245 0L164 0L82 0L0 0Z" fill="#6600ff"></path><path d="M0 409L82 379L164 403L245 421L327 337L409 325L491 265L573 415L655 439L736 385L818 469L900 403L900 113L818 215L736 149L655 197L573 233L491 59L409 137L327 149L245 83L164 179L82 263L0 89Z" fill="#6800ee"></path><path d="M0 445L82 487L164 457L245 535L327 451L409 499L491 439L573 511L655 487L736 553L818 541L900 565L900 401L818 467L736 383L655 437L573 413L491 263L409 323L327 335L245 419L164 401L82 377L0 407Z" fill="#6900dd"></path><path d="M0 601L82 601L164 601L245 601L327 601L409 601L491 601L573 601L655 601L736 601L818 601L900 601L900 563L818 539L736 551L655 485L573 509L491 437L409 497L327 449L245 533L164 455L82 485L0 443Z" fill="#6900cc"></path></svg>