<?xml version='1.0' encoding='utf-8'?>
<svg xmlns:xlink="http://www.w3.org/1999/xlink" xmlns="http://www.w3.org/2000/svg" width="1024" height="1024" viewBox="0 0 270.93333 270.93334" version="1.1" id="svg8"> <defs id="defs2"> <linearGradient id="linearGradient940"> <stop style="stop-color:#3a3693;stop-opacity:1;" offset="0" id="stop936"/> <stop style="stop-color:#7d3693;stop-opacity:1" offset="1" id="stop938"/> </linearGradient> <linearGradient id="linearGradient924"> <stop style="stop-color:#560562;stop-opacity:1" offset="0" id="stop920"/> <stop style="stop-color:#d74f72;stop-opacity:0.92156863" offset="1" id="stop922"/> </linearGradient> <linearGradient id="linearGradient908"> <stop style="stop-color:#f6f5f5;stop-opacity:1;" offset="0" id="stop904"/> <stop style="stop-color:#de9dff;stop-opacity:1" offset="1" id="stop906"/> </linearGradient> <linearGradient id="linearGradient900"> <stop style="stop-color:#ffffff;stop-opacity:1;" offset="0" id="stop896"/> <stop style="stop-color:#de9dff;stop-opacity:1" offset="1" id="stop898"/> </linearGradient> <linearGradient xlink:href="#linearGradient940" id="linearGradient892" x1="89.08461" y1="225.8394" x2="120.20815" y2="227.0119" gradientUnits="userSpaceOnUse"/> <linearGradient xlink:href="#linearGradient900" id="linearGradient902" x1="46.243156" y1="38.193741" x2="80.828377" y2="81.328117" gradientUnits="userSpaceOnUse"/> <linearGradient xlink:href="#linearGradient908" id="linearGradient910" x1="227.84764" y1="48.035625" x2="234.92131" y2="68.242714" gradientUnits="userSpaceOnUse"/> <linearGradient xlink:href="#linearGradient908" id="linearGradient918" x1="172.50372" y1="67.338699" x2="198.05882" y2="67.338699" gradientUnits="userSpaceOnUse"/> <linearGradient xlink:href="#linearGradient924" id="linearGradient926" x1="161.57079" y1="179.39403" x2="131.34496" y2="284.36008" gradientUnits="userSpaceOnUse"/> <linearGradient xlink:href="#linearGradient940" id="linearGradient942" x1="145.08397" y1="32.11182" x2="150.57957" y2="145.87085" gradientUnits="userSpaceOnUse" gradientTransform="translate(1.192627e-5,1.7486908)"/> </defs> <metadata id="metadata5"> </metadata> <g id="layer1" transform="translate(0,-26.06665)"> <rect style="opacity:1;vector-effect:none;fill:url(#linearGradient942);fill-opacity:1;stroke:none;stroke-width:0.529167;stroke-linecap:round;stroke-linejoin:round;stroke-miterlimit:4;stroke-dasharray:none;stroke-dashoffset:2.26667;stroke-opacity:1;paint-order:stroke fill markers" id="rect823" width="270.93332" height="270.93332" x="1.4210855e-14" y="26.066654"/> <rect y="174.44798" x="0" height="122.55199" width="270.93332" id="rect846" style="opacity:1;vector-effect:none;fill:#201c4d;fill-opacity:1;stroke:none;stroke-width:0.52916664;stroke-linecap:round;stroke-linejoin:round;stroke-miterlimit:4;stroke-dasharray:none;stroke-dashoffset:2.26666689;stroke-opacity:1;paint-order:stroke fill markers"/> <ellipse ry="4.3964839" rx="27.271938" cy="286.97049" cx="221.26678" id="ellipse977" style="opacity:1;vector-effect:none;fill:#13110f;fill-opacity:1;stroke:none;stroke-width:0.52916664;stroke-linecap:round;stroke-linejoin:round;stroke-miterlimit:4;stroke-dasharray:none;stroke-dashoffset:2.26666689;stroke-opacity:1;paint-order:stroke fill markers"/> <path style="fill:url(#linearGradient926);stroke:none;stroke-width:0.26458332px;stroke-linecap:butt;stroke-linejoin:miter;stroke-opacity:1;fill-opacity:1" d="m 52.786699,297.15063 c 0,0 67.144271,-28.94725 74.486181,-51.504 7.34191,-22.55675 -2.27596,-26.72884 1.74164,-37.63558 4.0176,-10.90674 25.81239,-7.16408 29.53345,-15.15532 3.72106,-7.99124 -4.39625,-19.19875 -4.39625,-19.19875 l 3.64942,0.12123 c 0,0 12.173,15.89093 10.22699,24.43827 -1.94601,8.54734 -17.60399,5.78039 -19.64679,17.31115 -2.0428,11.53076 21.64341,22.91227 21.04737,38.72657 -0.59604,15.8143 -27.59046,42.74578 -27.59046,42.74578 H 52.979904" id="path835"/> <path id="path833" style="fill:#282390;fill-opacity:1;stroke:none;stroke-width:1px;stroke-linecap:butt;stroke-linejoin:miter;stroke-opacity:1" d="M 923.88086 229.41797 C 921.60569 229.40914 919.32267 229.48326 917.03125 229.64258 C 770.38067 239.83872 595.08398 561.97656 595.08398 561.97656 L 1024 559.77539 L 1024 281.16992 C 993.48582 250.24828 959.7139 229.55696 923.88086 229.41797 z " transform="matrix(0.26458333,0,0,0.26458333,0,26.06665)"/> <path id="path829" style="fill:#3a3693;fill-opacity:1;stroke:none;stroke-width:1px;stroke-linecap:butt;stroke-linejoin:miter;stroke-opacity:1" d="M 747.48047 263.56445 C 397.89896 263.63105 361.41211 561.84961 361.41211 561.84961 L 1024 563.28711 L 1024 357.77734 C 976.4148 307.71798 896.88492 267.30809 764.36523 263.78906 C 758.65745 263.63749 753.02938 263.5634 747.48047 263.56445 z " transform="matrix(0.26458333,0,0,0.26458333,0,26.06665)"/> <path id="path831" style="fill:#282390;fill-opacity:1;stroke:none;stroke-width:1px;stroke-linecap:butt;stroke-linejoin:miter;stroke-opacity:1" d="M 0 270.31445 L 0 562.11328 L 361.41211 561.84961 C 361.41211 561.84961 377.76133 280.21214 12.462891 270.51172 C 8.2492048 270.39983 4.1067271 270.34447 0 270.31445 z " transform="matrix(0.26458333,0,0,0.26458333,0,26.06665)"/> <path style="fill:#4943c3;fill-opacity:1;stroke:none;stroke-width:0.26458332px;stroke-linecap:butt;stroke-linejoin:miter;stroke-opacity:1" d="m 1.3543732,175.54711 c 0,0 19.4521098,-61.05129 58.2534138,-63.74902 38.801313,-2.69773 95.898303,62.95801 95.898303,62.95801 z" id="path827"/> <path id="path875" d="M 119.67339,218.15728 C 102.86901,193.98967 66.263227,200.73642 41.762133,208.48868 13.04408,219.47328 6.0305286,243.7115 25.262527,257.11833 75.035775,286.60777 144.46041,255.14475 119.67339,218.15728 Z" style="fill:#fbce99;fill-opacity:1;stroke:none;stroke-width:0.26458332px;stroke-linecap:butt;stroke-linejoin:miter;stroke-opacity:1"/> <path style="fill:#2b2b2b;fill-opacity:1;stroke:none;stroke-width:0.26458332px;stroke-linecap:butt;stroke-linejoin:miter;stroke-opacity:1" d="M 115.80049,216.89594 C 100.29738,195.04286 66.526221,201.14348 43.922403,208.1533 17.428172,218.0859 10.957725,240.00282 28.700467,252.12567 74.619454,278.7909 138.6681,250.3411 115.80049,216.89594 Z" id="path839"/> <rect style="opacity:1;vector-effect:none;fill:#450139;fill-opacity:1;stroke:none;stroke-width:0.52916664;stroke-linecap:round;stroke-linejoin:round;stroke-miterlimit:4;stroke-dasharray:none;stroke-dashoffset:2.26666689;stroke-opacity:1;paint-order:stroke fill markers" id="rect841" width="47.50856" height="37.674908" x="197.22191" y="249.53491"/> <rect style="opacity:1;vector-effect:none;fill:#505c8e;fill-opacity:1;stroke:none;stroke-width:0.52916664;stroke-linecap:round;stroke-linejoin:round;stroke-miterlimit:4;stroke-dasharray:none;stroke-dashoffset:2.26666689;stroke-opacity:1;paint-order:stroke fill markers" id="rect848" width="12.701237" height="19.991234" x="204.23595" y="267.16949"/> <rect style="opacity:1;vector-effect:none;fill:#2f0629;fill-opacity:1;stroke:none;stroke-width:0.52916664;stroke-linecap:round;stroke-linejoin:round;stroke-miterlimit:4;stroke-dasharray:none;stroke-dashoffset:2.26666689;stroke-opacity:1;paint-order:stroke fill markers" id="rect850" width="14.714563" height="16.650114" x="226.18987" y="256.32343"/> <path style="opacity:1;vector-effect:none;fill:url(#linearGradient910);fill-opacity:1;stroke:none;stroke-width:0.52916658;stroke-linecap:round;stroke-linejoin:round;stroke-miterlimit:4;stroke-dasharray:none;stroke-dashoffset:2.26666689;stroke-opacity:1;paint-order:stroke fill markers" d="m 229.51471,42.401102 a 13.008487,12.969068 0 0 0 -12.21754,8.562958 13.008487,12.969068 0 0 0 -7.91749,-2.698851 13.008487,12.969068 0 0 0 -13.00848,12.969062 13.008487,12.969068 0 0 0 12.11947,12.924671 l -0.0427,0.154469 32.3649,0.295139 a 13.008487,12.969068 0 0 0 0.9185,0.04589 13.008487,12.969068 0 0 0 0.84449,-0.02969 l 0.82613,0.0075 -0.0187,-0.09868 a 13.008487,12.969068 0 0 0 11.35651,-12.848186 13.008487,12.969068 0 0 0 -13.00848,-12.969062 13.008487,12.969068 0 0 0 -1.04004,0.04679 13.008487,12.969068 0 0 0 -11.1766,-6.362005 z" id="path864"/> <path id="path874" d="m 197.11815,60.34408 a 5.6953689,5.6250711 0 0 0 -5.34908,3.71401 5.6953689,5.6250711 0 0 0 -3.46643,-1.170572 5.6953689,5.6250711 0 0 0 -5.69536,5.625068 5.6953689,5.6250711 0 0 0 5.30614,5.605815 l -0.0187,0.067 14.16998,0.12801 a 5.6953689,5.6250711 0 0 0 0.40214,0.0199 5.6953689,5.6250711 0 0 0 0.36974,-0.01288 l 0.36169,0.0033 -0.008,-0.0428 a 5.6953689,5.6250711 0 0 0 4.97211,-5.572641 5.6953689,5.6250711 0 0 0 -5.69537,-5.625068 5.6953689,5.6250711 0 0 0 -0.45535,0.02029 5.6953689,5.6250711 0 0 0 -4.89333,-2.759391 z" style="opacity:1;vector-effect:none;fill:url(#linearGradient918);fill-opacity:1;stroke:none;stroke-width:0.52916658;stroke-linecap:round;stroke-linejoin:round;stroke-miterlimit:4;stroke-dasharray:none;stroke-dashoffset:2.26666689;stroke-opacity:1;paint-order:stroke fill markers"/> <path style="opacity:1;vector-effect:none;fill:#de9dff;fill-opacity:1;stroke:none;stroke-width:0.52916658;stroke-linecap:round;stroke-linejoin:round;stroke-miterlimit:4;stroke-dasharray:none;stroke-dashoffset:2.26666689;stroke-opacity:1;paint-order:stroke fill markers" d="m 70.328716,85.324703 a 13.008487,12.969068 0 0 0 -12.21786,8.563303 13.008487,12.969068 0 0 0 -7.917346,-2.699059 13.008487,12.969068 0 0 0 -13.008509,12.969233 13.008487,12.969068 0 0 0 12.119673,12.92428 l -0.04289,0.15451 32.364952,0.29507 -0.0429,0.15451 32.364954,0.29508 a 13.008487,12.969068 0 0 0 0.91881,0.046 13.008487,12.969068 0 0 0 0.8444,-0.0295 l 0.82578,0.007 -0.0186,-0.0987 a 13.008487,12.969068 0 0 0 11.35641,-12.8478 13.008487,12.969068 0 0 0 -13.0085,-12.969235 13.008487,12.969068 0 0 0 -1.03973,0.04703 13.008487,12.969068 0 0 0 -11.17658,-6.362403 13.008487,12.969068 0 0 0 -12.209084,8.540564 13.008487,12.969068 0 0 0 -5.88904,-2.510956 13.008487,12.969068 0 0 0 -0.22118,-0.02635 13.008487,12.969068 0 0 0 -1.03818,-0.111107 13.008487,12.969068 0 0 0 -0.77773,-0.0279 13.008487,12.969068 0 0 0 -0.57257,0.02842 13.008487,12.969068 0 0 0 -0.4377,0.01964 13.008487,12.969068 0 0 0 -11.17658,-6.361888 z" id="path876"/> <path style="fill:none;stroke:none;stroke-width:0.26458332px;stroke-linecap:butt;stroke-linejoin:miter;stroke-opacity:1" d="m 233.25593,256.05147 v 16.75829" id="path888"/> <path id="path890" d="M 240.88217,264.60063 H 226.01829" style="fill:none;stroke:none;stroke-width:0.26458332px;stroke-linecap:butt;stroke-linejoin:miter;stroke-opacity:1"/> <path style="opacity:1;vector-effect:none;fill:#3a3693;fill-opacity:1;stroke:none;stroke-width:0.52916664;stroke-linecap:round;stroke-linejoin:round;stroke-miterlimit:4;stroke-dasharray:none;stroke-dashoffset:2.26666689;stroke-opacity:1;paint-order:stroke fill markers" d="m 197.22191,237.95772 h 47.50856 l 4.85858,16.24037 h -58.33626 z" id="rect843"/> <path id="path877" d="m 113.24174,216.8322 c -14.643383,-21.05972 -46.541764,-15.18058 -67.892089,-8.42524 -25.024995,9.572 -31.136624,30.69326 -14.377804,42.37601 43.372552,25.69719 103.869393,-1.71979 82.269893,-33.95077 z" style="fill:url(#linearGradient892);fill-opacity:1.0;stroke:none;stroke-width:0.26458332px;stroke-linecap:butt;stroke-linejoin:miter;stroke-opacity:1"/> <path id="path894" d="m 54.068318,49.251696 c -2.328049,0.003 -4.40509,1.442716 -5.195958,3.601616 -0.964927,-0.733686 -2.148537,-1.132735 -3.367057,-1.13519 -2.852333,0.0026 -5.235135,2.142914 -5.502752,4.942849 -1.046922,-1.271014 -2.617555,-2.011089 -4.278209,-2.015871 v 2.18e-4 c -2.32805,0.003 -4.405091,1.442716 -5.195959,3.601616 -0.964927,-0.733686 -2.148536,-1.132735 -3.367056,-1.135191 -3.055376,-3e-6 -5.532239,2.44216 -5.532199,5.454696 0.0032,2.865511 2.254731,5.239999 5.154201,5.435786 l -0.01824,0.06499 13.764025,0.124103 c 4.394019,0.07545 9.212622,0.14822 13.745786,0.189093 0.129976,0.01099 0.260305,0.01744 0.390743,0.01934 0.119805,-2.95e-4 0.23957,-0.0044 0.359103,-0.01239 l 0.351184,0.0028 -0.0079,-0.04151 c 0.375813,-0.04785 0.81434,0.141136 1.172366,0.01875 l 10.989308,0.23606 c 3.719332,-0.130112 10.698663,0.582438 14.033488,-0.203736 0.119804,-2.95e-4 0.239568,-0.0044 0.3591,-0.01239 l 0.35119,0.0028 -0.008,-0.04151 c 2.758555,-0.348244 4.826114,-2.661541 4.8296,-5.40362 3.9e-5,-3.012536 -2.476824,-5.454699 -5.5322,-5.454695 -0.147599,7.75e-4 -0.295107,0.0074 -0.44217,0.01978 -0.713412,-1.183206 -1.854155,-2.056718 -3.193438,-2.445343 -0.945515,-1.819982 -2.844018,-2.965673 -4.917952,-2.967839 -0.147599,7.75e-4 -0.295108,0.0074 -0.442172,0.01978 -0.994516,-1.656409 -2.80086,-2.673356 -4.753123,-2.675945 -2.324188,0.0031 -4.398592,1.438189 -5.192224,3.592052 -0.732506,-0.552331 -1.593424,-0.91536 -2.50447,-1.056077 -0.03132,-0.004 -0.06267,-0.0077 -0.09406,-0.01108 -0.146477,-0.0214 -0.293767,-0.03699 -0.441513,-0.04673 -0.110107,-0.0072 -0.220406,-0.01108 -0.33075,-0.01174 -0.08125,0.0022 -0.162435,0.0062 -0.243504,0.01195 -0.06209,0.0017 -0.124147,0.0045 -0.186143,0.0083 -0.99457,-1.656326 -2.800904,-2.673185 -4.753123,-2.675729 z" style="opacity:1;vector-effect:none;fill:url(#linearGradient902);fill-opacity:1;stroke:none;stroke-width:0.52916658;stroke-linecap:round;stroke-linejoin:round;stroke-miterlimit:4;stroke-dasharray:none;stroke-dashoffset:2.26666689;stroke-opacity:1;paint-order:stroke fill markers"/> <ellipse style="opacity:1;vector-effect:none;fill:#13110f;fill-opacity:1;stroke:none;stroke-width:0.52916664;stroke-linecap:round;stroke-linejoin:round;stroke-miterlimit:4;stroke-dasharray:none;stroke-dashoffset:2.26666689;stroke-opacity:1;paint-order:stroke fill markers" id="path975" cx="195.71223" cy="202.88774" rx="20.951994" ry="4.3964839"/> <path style="opacity:1;vector-effect:none;fill:#ccbccc;fill-opacity:1;stroke:none;stroke-width:0.52916664;stroke-linecap:round;stroke-linejoin:round;stroke-miterlimit:4;stroke-dasharray:none;stroke-dashoffset:2.26666689;stroke-opacity:1;paint-order:stroke fill markers" d="m 194.8192,181.19709 c 14.50315,2.03984 23.83948,20.35747 14.62371,22.58986 h -16.68456 c 0,0 -10.55372,-0.28581 -12.92038,-1.4426 -2.36666,-1.15678 6.21996,-20.58069 14.98123,-21.14726 z" id="rect944"/> </g> </svg>